# xmcd
#
# Track frame offsets:
#	150
#	13368
#	27603
#	42608
#	56495
#	69972
#	84891
#	100233
#	115307
#	130671
#	144302
#	158442
#	173242
#	188031
#	202352
#	217301
#	232091
#	246530
#	261636
#	277832
#
# Disc length: 3893 seconds
#
# Revision: 0
# Processed by: cddbd v1.5.2PL0 Copyright (c) Steve Scherf et al.
# Submitted via: EasyCDDAExtractor 16.0.6.1
#
DISCID=330f3314
DTITLE=Συλλογικός δίσκος - Τα ρεμπέτικα Γ 1937-1960 14 Β
DYEAR=2010
DGENRE=Ρεμπέτικη
TTITLE0=Κάβουρας Γιώργος - Σε ξέχασα δε σε πονώ [χασάπ., Κ. Σκαρβέλης, Αθ 1938
TTITLE0=]
TTITLE1=Παγιουμτζής Στράτος-Τσιτσάνης Βασίλης - Ματσαράγκα [ζεϊμπ. Β. Τσιτσάνη
TTITLE1=ς, Αθ 6.1940]
TTITLE2=Τσανάκος Κώστας - Είναι δυό χρόνια π' αγαπώ[χασάπ.,Κ.Σκαρβέλης-Κ.Μακρή
TTITLE2=ς, Αθ6.1938]
TTITLE3=Περπινιάδης Στελλάκης - Η Μαγδάλω [χασάπ. Δ. Σέμσης-Κ. Μακρής, Αθ17.3.
TTITLE3=1938]
TTITLE4=Χατζηχρήστος Απόστολος - Είσαι αριστοκράτισσα κι ωραία [Β.Τσιτσάνης-Χ.
TTITLE4=Βασιλ/δης, Αθ 1941]
TTITLE5=Σταυροπούλου Νταίζη - Αφού μ' αρέσει να γυρνώ [Β. Τσιτσάνης, Αθ 10.6.1
TTITLE5=940]
TTITLE6=Κάβουρας Γιώργος - Κάθε βραδάκι με γελάς [ζεϊμπ., Κ. Σκαρβέλης, Αθήνα 
TTITLE6=1938]
TTITLE7=Παγιουμτζής Στράτος - Περσεφόνη μου γλυκειά [χασάπ. Παν. Τούντας, Αθ 7
TTITLE7=1938]
TTITLE8=Παγιουμτζής Στράτος-Τσιτσάνης Βασίλης - Νταίζυ [ζεϊμπ. Β. Τσιτσάνης, Α
TTITLE8=θήνα 5.1939]
TTITLE9=Ζουμίδης Φ. - Άλλα μού λες και άλλα μού κάνεις [χασάπ., Στ. Χρυσίνης, 
TTITLE9=Αθ 1938]
TTITLE10=Παγιουμτζής Στράτος-Περπινιάδης Στελλάκης - Θέλω να σ' ανταμώσω(Ξαβερ
TTITLE10=ιώτισα)[χασ.Δ.Γκόγκος, Αθ28.10.1938]
TTITLE11=Παγιουμτζής Στράτος-Τσιτσάνης Βασίλης - Η μάγισσα της Αραπιάς [χασ. Β
TTITLE11=Τσιτσάνης, Αθ 10.6.1940]
TTITLE12=Γεωργακοπούλου Ιωάννα - Ο πασατεμπάς [Δ. Σέμσης-Χ. Βασιλειάδης, Αθήνα
TTITLE12=7.1940]
TTITLE13=Παγιουμτζής Στράτος-Περπινιάδης Στελλάκης - Να πάμε για τη Βούλα [ζεϊ
TTITLE13=μπ. Β.Τσιτσάνης-Π.Τούντας, Αθ8.1939]
TTITLE14=Κάβουρας Γιώργος - Μέσ' στην αγορά [χασ. Κ. Σκερβέλης, Αθήνα 1938]
TTITLE15=Σταυροπούλου Νταίζη - Θα βρω μιά άλλη με καρδιά [χασ. Β. Τσιτσάνης, Α
TTITLE15=θ 11.6.1940]
TTITLE16=Περπινιάδης Στελλάκης - Σε παίρνω δίχως φράγκο [κουλ. Δ.Σέμσης-Κ.Μακρ
TTITLE16=ής, Αθ 4.1938]
TTITLE17=Παγιουμτζής Στράτος - Τα βελουδένια μάτια σου [ζεϊμπ.Β.Τσιτσάνης-Σ.Πα
TTITLE17=γιουμτζής,Αθ 1939]
TTITLE18=Παγιουμτζής Στράτος-Κάβουρας Γιώργος - Φτωχό πανωφοράκι μου [ζεϊμπ.Σ.
TTITLE18=Περιστέρης-Μ.Μάτσας, Αθ 1938]
TTITLE19=Άνευ ερμηνευτού - Χορός πολίτικος [οργ., χασ.,  Β. Τσιτσάνης, Αθήνα 1
TTITLE19=939]
EXTD=
EXTT0=
EXTT1=
EXTT2=
EXTT3=
EXTT4=
EXTT5=
EXTT6=
EXTT7=
EXTT8=
EXTT9=
EXTT10=
EXTT11=
EXTT12=
EXTT13=
EXTT14=
EXTT15=
EXTT16=
EXTT17=
EXTT18=
EXTT19=
PLAYORDER=
